<?xml version="1.0" standalone="no"?>
<!DOCTYPE svg PUBLIC "-//W3C//DTD SVG 20010904//EN"
 "http://www.w3.org/TR/2001/REC-SVG-20010904/DTD/svg10.dtd">
<svg version="1.0" xmlns="http://www.w3.org/2000/svg"
 width="512.000000pt" height="512.000000pt" viewBox="0 0 512.000000 512.000000"
 preserveAspectRatio="xMidYMid meet">
<metadata>
Created by potrace 1.11, written by Peter Selinger 2001-2013
</metadata>
<g transform="translate(0.000000,512.000000) scale(0.100000,-0.100000)"
fill="#000000" stroke="none">
<path d="M1089 4850 c-88 -16 -148 -61 -189 -143 -28 -57 -30 -67 -30 -179 l0
-118 40 0 41 0 -6 -57 c-3 -32 -24 -267 -45 -523 -21 -256 -44 -481 -51 -500
-17 -47 -45 -91 -118 -183 -121 -152 -167 -241 -195 -379 -14 -68 -16 -220
-16 -1293 l0 -1215 790 0 790 0 0 1215 c0 1073 -2 1225 -16 1293 -28 138 -74
227 -195 379 -73 92 -101 136 -118 183 -7 19 -30 244 -51 500 -21 256 -42 491
-45 523 l-6 57 41 0 42 0 -4 128 c-3 142 -15 178 -76 240 -68 68 -102 76 -332
78 -113 2 -226 -1 -251 -6z m440 -185 c28 -14 41 -33 41 -61 0 -12 -42 -14
-260 -14 -244 0 -260 1 -260 18 0 22 18 46 45 60 32 18 399 16 434 -3z m-2
-650 c58 -709 58 -709 92 -780 28 -61 47 -89 161 -235 58 -75 102 -159 127
-245 16 -55 18 -147 21 -1187 l3 -1128 -621 0 -620 0 0 1083 c0 665 4 1109 10
1152 21 147 66 237 195 396 68 84 116 168 133 234 6 22 29 274 52 560 23 286
44 526 46 533 3 10 45 12 186 10 l183 -3 32 -390z"/>
<path d="M780 1765 l0 -615 530 0 530 0 0 615 0 615 -530 0 -530 0 0 -615z
m880 0 l0 -445 -350 0 -350 0 0 445 0 445 350 0 350 0 0 -445z"/>
<path d="M2800 3845 l0 -996 478 4 c519 4 522 5 693 67 122 44 228 110 321
198 128 122 211 264 260 442 20 76 23 107 23 285 0 178 -3 209 -23 285 -83
305 -293 536 -581 640 -171 62 -174 63 -693 67 l-478 4 0 -996z m852 531 c255
-55 400 -266 385 -565 -8 -187 -71 -320 -195 -413 -93 -70 -163 -90 -349 -96
l-153 -4 0 546 0 546 123 0 c67 0 152 -7 189 -14z"/>
<path d="M3607 2309 c-420 -61 -749 -341 -863 -734 -32 -112 -44 -321 -24
-442 63 -392 344 -704 735 -818 232 -67 586 -55 833 29 96 33 235 106 305 161
l57 45 0 415 0 415 -435 0 -435 0 0 -205 0 -205 195 0 196 0 -3 -87 -3 -88
-60 -24 c-142 -56 -383 -67 -509 -22 -226 80 -360 311 -343 591 21 339 231
538 545 517 143 -10 235 -51 343 -154 l56 -54 187 161 186 160 -69 68 c-153
154 -338 242 -571 272 -89 11 -242 11 -323 -1z"/>
</g>
</svg>
